<?xml version="1.0" encoding="UTF-8"?>
<svg xmlns="http://www.w3.org/2000/svg" version="1.1" viewBox="0 0 1024 450">
  <defs>
    <style>
      .cls-1 {
        fill: #ffea00;
      }

      .cls-2 {
        fill: #fff;
      }

      .cls-3 {
        opacity: .4;
      }

      .cls-4 {
        fill: red;
      }
    </style>
  </defs>
  <!-- Generator: Adobe Illustrator 28.6.0, SVG Export Plug-In . SVG Version: 1.2.0 Build 709)  -->
  <g>
    <g id="Calque_1">
      <g>
        <g>
          <polygon points="819.6 281 818.7 281 818.7 280.9 744.7 276.2 781 54.8 866.9 60.3 912.5 281 838.6 281 838.6 282.2 819.6 281"/>
          <path class="cls-1" d="M851.5,76l38.9,188.2h-54.5l-3.8-53.1-11.8,3.8v49.3l-54.5-3.5,30.9-188.2,54.9,3.5ZM820.3,171.9h11.8l-8-28.5-3.8,28.5Z"/>
        </g>
        <g>
          <polygon points="226.8 267.3 226.8 277.8 111.5 284 132.7 32.9 211.7 26.3 236.7 86.8 263.5 32.5 342.4 25.9 363.8 283.9 247.5 278 240.7 291.2 226.8 267.3"/>
          <path class="cls-1" d="M343.9,266.2l-81.3-4.1,4.9-62-27.8,53.8-31.3-53.8v62l-77.1,4.1,18.4-218,49.7-4.1,35.8,86.4,40.6-82.3,49.7-4.1,18.4,222.1Z"/>
        </g>
        <g>
          <polygon points="397.8 281.9 396.9 281.9 396.9 281.9 322.9 277.1 359.2 55.8 445.1 61.2 490.7 281.9 416.8 281.9 416.8 283.1 397.8 281.9"/>
          <path class="cls-1" d="M429.7,77l38.9,188.2h-54.5l-3.8-53.1-11.8,3.8v49.3l-54.5-3.5,30.9-188.2,54.9,3.5ZM398.5,172.9h11.8l-8-28.5-3.8,28.5Z"/>
        </g>
        <g>
          <polygon points="448.9 282.6 467.2 57.1 615.5 57.1 620 282.6 448.9 282.6"/>
          <path class="cls-1" d="M527.3,73.8l23.3,53.1v-53.1h46.9l3.8,192h-46.9l-15.6-28.8v28.8h-70.2l15.6-192h43.1Z"/>
        </g>
        <g>
          <path d="M688.5,282.2c-15.3,0-29.7-3.3-43-9.7-12.8-6.2-24-14.7-33.3-25.4-9-10.3-16.2-22.3-21.4-35.7-5.2-13.4-7.8-27.8-7.8-42.7s2.6-28.9,7.9-42.1c5.2-13.2,12.5-24.9,21.6-34.8,9.3-10.2,20.6-18.3,33.5-24.1,13.2-6,27.5-9,42.6-9s40.8,5.8,58.2,17.2c16.9,11.1,29.9,26.1,38.9,44.6l8.5,17.6-4.3,1.1c2.5,6.5,4,12.1,4.4,17.1.4,4.1.6,8.3.6,12.3v18.7l-.2,1.2c-2.1,12.9-6.4,25.2-12.7,36.4-6.3,11.2-14.1,21.1-23.3,29.5-9.4,8.6-20.2,15.4-32.1,20.2-12.2,5-24.9,7.5-37.9,7.5Z"/>
          <path class="cls-1" d="M775.9,157.8c.3,3.7.5,7.3.5,10.9v17.4c-1.9,11.2-5.5,21.6-10.9,31.3-5.4,9.7-12.1,18.1-20,25.3-7.9,7.2-16.7,12.8-26.6,16.8-9.8,4-20,6-30.4,6s-23.7-2.6-34.4-7.8c-10.7-5.2-19.9-12.2-27.6-21-7.8-8.9-13.9-19.1-18.4-30.8-4.5-11.7-6.8-24.1-6.8-37.2s2.3-25,6.8-36.4c4.5-11.4,10.6-21.3,18.4-29.7,7.8-8.4,17-15.1,27.6-19.9,10.6-4.8,22.1-7.3,34.4-7.3,17.4,0,33.2,4.7,47.4,14.1,14.2,9.4,25.2,22,32.8,37.8l-53.1,13.6c-1.9-5.3-5.2-8.9-9.9-10.8-4.7-1.9-9.1-2.8-13-2.8-9.5,0-17.6,3.1-24.3,9.3-6.7,6.2-10.1,14.6-10.1,25.1s.9,8.7,2.8,12.8c1.9,4.1,4.3,7.8,7.5,11.1,3.1,3.3,6.8,5.9,10.9,7.9,4.2,2,8.6,3,13.2,3s8.3-1.5,13-4.4c4.7-3,8-6.2,9.9-9.8l-38.2-3.2v-34.8h94.8c2.1,5.3,3.3,9.8,3.6,13.4Z"/>
        </g>
      </g>
      <g>
        <g>
          <path d="M899.9,324.4l-8.8-2.7-4.3-97.8,16.1.7c16.7.7,31.6,5.6,44.3,14.5,12.1,8.6,21.9,19.6,28.9,32.6,6.9,12.7,11.2,26.8,12.9,41.8,1.7,15.1.5,30-3.7,44.3-4.3,14.5-11.9,27.8-22.7,39.6-11.1,12.1-25.8,20.9-43.7,26.1l-19,5.6v-104.7Z"/>
          <path class="cls-4" d="M902.4,239.5c13.9.6,26,4.5,36.3,11.8,10.3,7.3,18.5,16.5,24.5,27.6,6,11.1,9.7,23.2,11.2,36.4,1.5,13.2.4,26-3.2,38.4-3.7,12.4-10.1,23.6-19.4,33.7-9.3,10.1-21.6,17.4-37,21.9v-95.9l-9.3-2.8-3.1-71.1ZM936.4,347.7c3.9-.9,7-2.9,9.1-5.9,2.2-3,3.3-6.2,3.5-9.7.2-3.5-.7-6.7-2.7-9.7-2-3-5.3-5-10-5.9v31.2Z"/>
        </g>
        <g>
          <path d="M868.3,423.3h-64.3l2.9-101.6-5.8-2.9v-75.8l9.5-3.5c12-4.4,23.8-6.7,34.8-6.7s1,0,1.5,0c11.8.2,22.5,2.6,31.8,7,9.5,4.6,17.4,11.1,23.5,19.5,6.2,8.5,9.8,18.3,10.8,29.2.9,10.4-.9,21.6-5.3,33.2-3.1,8.1-7.7,16.3-13.8,24.4l35.2,44.1-54.8,43.8-6-10.8Z"/>
          <path class="cls-4" d="M878.7,412.1l-26.9-48.2,3,45h-35.9l2.7-95.9-6-3v-56.7c11-4,21.3-5.9,31.1-5.8,9.8.2,18.4,2.1,25.8,5.6,7.4,3.6,13.4,8.5,18.1,14.9,4.7,6.4,7.4,13.7,8.1,21.9.7,8.2-.7,17.1-4.4,26.7-3.7,9.6-10,19.4-18.9,29.5l33.4,41.9-30.2,24.1ZM851.8,318.9c2.2,0,4-1.1,5.3-3.3,1.4-2.2,2.2-4.8,2.5-7.8.3-3-.2-6-1.5-9-1.3-3-3.4-5.3-6.3-6.7v26.9Z"/>
        </g>
        <g>
          <polygon points="771.3 431.9 770.6 431.9 770.6 431.9 709.7 427.6 739.6 227.9 810.2 232.9 847.6 431.9 786.9 431.9 786.9 433 771.3 431.9"/>
          <path class="cls-4" d="M797.5,247.1l32,169.8h-44.8l-3.1-47.9-9.7,3.4v44.5l-44.8-3.1,25.4-169.8,45.1,3.1ZM771.8,333.5h9.7l-6.6-25.7-3.1,25.7Z"/>
        </g>
        <g>
          <path d="M670.5,429.4c-13,0-25.4-3.1-36.6-9.2-10.9-5.9-20.4-13.9-28.4-23.8-7.8-9.7-14-21.1-18.4-33.8-4.4-12.7-6.6-26.2-6.6-40.2s2.2-27.4,6.7-39.7c4.5-12.4,10.7-23.4,18.6-32.6,8-9.4,17.6-17,28.5-22.5,11.2-5.6,23.4-8.5,36.3-8.5s17.8,1.5,26.2,4.4c8.3,2.9,16,6.9,23.2,12,7.1,5.1,13.5,11.2,19.2,18.2,5.6,7,10.3,14.8,14.1,23.4l6.3,14.4-73.8,21.6-4.4-12.1c-.8-2.3-1.7-2.6-2.1-2.8-2.7-1.2-5.6-1.7-8.7-1.7s-2.1.3-3.2.9c-1.6.9-3.1,2.1-4.5,3.7-1.4,1.6-2.6,3.7-3.6,6.3-1,2.5-1.4,5.3-1.4,8.5s.5,5.1,1.4,7.5c1.1,2.7,2.4,5,4,7.1,1.5,1.9,3.2,3.4,4.9,4.4,1.3.8,2,.9,2.5.9,1.4,0,2.8-.3,4.3-1,3.3-1.5,6.7-3,10.1-4.5l5.3-2.4,68.7,27.5-5.8,13c-3.7,8.4-8.3,16.3-13.8,23.6-5.6,7.5-11.9,14-18.9,19.5-7.1,5.6-15,10.1-23.3,13.2-8.6,3.3-17.5,4.9-26.7,4.9Z"/>
          <path class="cls-4" d="M740.6,362.5c-3.3,7.5-7.4,14.5-12.2,21-4.9,6.5-10.3,12.2-16.4,16.9-6.1,4.8-12.6,8.5-19.7,11.2-7,2.7-14.3,4-21.8,4-10.8,0-20.8-2.5-30.1-7.6-9.3-5-17.4-11.8-24.2-20.3-6.9-8.5-12.2-18.4-16.2-29.7-3.9-11.3-5.9-23.2-5.9-35.7s2-24.2,5.9-35c3.9-10.9,9.3-20.3,16.2-28.4,6.9-8.1,14.9-14.5,24.2-19.1,9.3-4.7,19.3-7,30.1-7s14.7,1.2,21.8,3.6c7,2.4,13.6,5.8,19.7,10.2,6.1,4.3,11.5,9.6,16.4,15.6,4.9,6.1,8.9,12.9,12.2,20.3l-46.4,13.5c-1.9-5.2-5.1-8.8-9.5-10.7-4.4-1.9-9.2-2.9-14.2-2.9s-6.5.8-9.6,2.5c-3.1,1.7-6,3.9-8.5,6.8-2.5,2.9-4.6,6.3-6.1,10.4-1.6,4.1-2.3,8.6-2.3,13.4s.8,8.5,2.3,12.5c1.6,4,3.6,7.6,6.1,10.7,2.5,3.1,5.3,5.6,8.5,7.6,3.1,1.9,6.3,2.9,9.6,2.9s6.6-.7,9.9-2.2c3.3-1.5,6.7-3,10.2-4.6l50,20.1Z"/>
        </g>
        <g>
          <polygon points="476.8 392.8 516.7 335.9 465.4 282 530.1 244.5 554.5 277.4 572.2 242.2 637.7 270.2 536 438 476.8 392.8"/>
          <path class="cls-4" d="M617.3,276.7l-85.2,140.7-36.1-27.6,38.8-55.2-47-49.4,38.5-22.3,30.5,41.1,22-43.8,38.5,16.5Z"/>
        </g>
        <g>
          <path d="M460.4,422.3h-60.8l2.7-96.1-5.5-2.7v-71.7l9-3.3c11.4-4.2,22.5-6.3,33-6.3s1,0,1.4,0c11.2.2,21.3,2.5,30.1,6.7,9,4.3,16.5,10.5,22.2,18.4,5.9,8.1,9.3,17.3,10.2,27.6.9,9.8-.8,20.4-5,31.4-2.9,7.6-7.3,15.4-13.1,23.1l33.3,41.7-51.8,41.5-5.7-10.2Z"/>
          <path class="cls-4" d="M470.2,411.8l-25.4-45.6,2.9,42.5h-34l2.6-90.8-5.7-2.9v-53.7c10.4-3.8,20.2-5.6,29.4-5.4,9.2.2,17.4,1.9,24.4,5.3,7,3.4,12.7,8.1,17.1,14.1,4.4,6.1,7,13,7.7,20.7.7,7.8-.7,16.2-4.1,25.3-3.5,9.1-9.4,18.4-17.9,27.9l31.6,39.7-28.5,22.8ZM444.8,323.6c2.1,0,3.8-1,5.1-3.1s2.1-4.5,2.3-7.4c.3-2.9-.2-5.7-1.4-8.6-1.2-2.9-3.2-5-6-6.4v25.4Z"/>
        </g>
        <g>
          <path d="M386.5,396.3c-9.3,0-18.3-1.9-26.7-5.7-8.2-3.6-15.4-8.6-21.5-14.7-6.1-6.1-11.1-13.4-14.7-21.5-3.7-8.4-5.7-17.4-5.7-26.7s2-18,5.8-26.1c3.7-7.8,8.7-14.6,14.9-20.4,6.2-5.7,13.5-10.3,21.8-13.5,8.2-3.2,17-4.9,26.1-4.9s17.6,1.7,25.5,5c7.8,3.3,14.8,7.9,20.6,13.8,5.8,5.8,10.5,12.8,13.8,20.6,3.3,7.9,5,16.5,5,25.5s-1.6,17.8-4.9,26.1c-3.2,8.2-7.8,15.6-13.5,21.8-5.7,6.2-12.6,11.2-20.4,14.9-8.1,3.9-16.8,5.8-26.1,5.8Z"/>
          <path class="cls-4" d="M386.5,277c7.1,0,13.8,1.3,20,3.9,6.2,2.6,11.5,6.2,16.1,10.7,4.6,4.6,8.1,9.9,10.7,16.1,2.6,6.2,3.9,12.8,3.9,20s-1.3,14.3-3.9,20.9c-2.6,6.6-6.2,12.4-10.7,17.3-4.6,4.9-9.9,8.8-16.1,11.8-6.2,2.9-12.8,4.4-20,4.4s-14.3-1.5-20.9-4.4c-6.6-2.9-12.4-6.9-17.3-11.8-4.9-4.9-8.8-10.7-11.8-17.3-2.9-6.6-4.4-13.6-4.4-20.9s1.5-13.8,4.4-20c2.9-6.2,6.9-11.5,11.8-16.1,4.9-4.6,10.7-8.1,17.3-10.7,6.6-2.6,13.6-3.9,20.9-3.9ZM397.5,331.4l10.5-11h-14.2l-7.2-14.2-3.8,14.2h-18.2l14.7,11-7.5,18.2,14.7-11,14.5,11-3.5-18.2Z"/>
        </g>
        <g>
          <polygon points="296.6 408 296.6 409.2 225.4 413.3 238.1 249 287.2 244.6 300.6 280.2 314.9 248.7 363.9 244.3 376.6 413.2 308.1 409.5 303 420.2 296.6 408"/>
          <path class="cls-4" d="M363,399.9l-47.3-2.6,2.9-39.7-16.2,34.5-18.3-34.5v39.7l-45,2.6,10.7-139.4,29-2.6,20.7,55.2,23.8-52.6,29-2.6,10.7,142Z"/>
        </g>
        <g>
          <polygon points="167.8 311.3 158.8 305 173.5 240.4 265.8 233.3 258.4 330.2 245.6 328 244.7 333.3 255.4 330.2 250.6 392.1 162.1 407.1 167.8 311.3"/>
          <path class="cls-4" d="M217.9,310.5v15.7l15.7-2.6-2.6,15.7-13.1,5.5-2.9,10.2,26.4-7.6-2.6,34-63.3,10.7,5.2-87.1-7.8-5.5,10.7-47.3,68.5-5.2-5.2,68.5-29-5Z"/>
        </g>
        <g>
          <polygon points="113.1 398.1 113.1 406 34.1 410.7 48.7 221.9 102.8 216.9 119.9 262.4 138.3 221.6 192.3 216.7 206.9 410.6 127.3 406.2 122.6 416.1 113.1 398.1"/>
          <path class="cls-4" d="M193.3,397.3l-55.7-3.1,3.3-46.6-19,40.4-21.4-40.4v46.6l-52.8,3.1,12.6-163.9,34-3.1,24.5,64.9,27.8-61.8,34-3.1,12.6,167Z"/>
        </g>
      </g>
      <g class="cls-3">
        <path class="cls-2" d="M134.5,151.3c.3.3.5.6.6.9.1.3.2.6.2.9,0,.3,0,.6-.2.8-.1.4-.4.7-.7.9.2.2.2.5.2.8,0,.3,0,.6-.2.9,0,.2-.2.4-.3.6-.1.2-.3.4-.6.5-.2.1-.5.2-.8.2s-.7,0-1.1-.2c-.4-.2-.8-.4-1.2-.6-.3-.3-.6-.6-.8-.9-.2-.3-.3-.6-.4-1,0-.3,0-.7,0-1,.1-.2.2-.4.4-.6.2-.1.4-.2.6-.3,0-.1.2-.3.3-.3,0,0,.2-.1.2-.2,0,0,.2,0,.2,0,0,0,.2,0,.3,0,.1,0,.3.1.5.2.2,0,.5.2.7.3.3.1.5.2.8.3.3,0,.5.1.6.2.1,0,.2,0,.3,0,0,0,0-.2,0-.3,0-.1-.1-.3-.3-.4s-.4-.3-.6-.5c-.3-.2-.6-.3-.9-.5-.2,0-.4-.2-.7-.2-.3,0-.5-.1-.8-.2-.3,0-.6,0-.9,0-.3,0-.6,0-.8.2-.3.1-.5.3-.8.5-.2.2-.4.5-.6.8-.2.5-.3.9-.3,1.5,0,.5.1,1.1.4,1.6.2.5.6,1,1.1,1.4.5.4,1.1.8,1.8,1,.4.2.9.2,1.2.3s.7,0,1,0c.3,0,.6-.1.8-.3.2-.1.4-.3.6-.4.2-.2.3-.3.4-.5.1-.2.2-.3.2-.5,0-.2,0-.3.1-.4s0-.3,0-.4c0-.1,0-.2,0-.3,0-.1,0-.2,0-.4,0-.2.1-.4.2-.5s.2-.3.3-.4c0,0,.2,0,.2,0,0,0,.1,0,.1.2,0,.3,0,.6,0,1.1,0,.4-.2.9-.4,1.4-.2.5-.4.9-.8,1.3-.3.4-.8.8-1.3,1.1-.5.3-1.1.5-1.8.6-.7.1-1.4,0-2.3-.1-.6-.2-1.1-.4-1.5-.7-.4-.3-.8-.7-1.1-1.1-.3-.4-.5-.8-.7-1.3-.2-.5-.3-1-.3-1.5s0-1,.1-1.5c.1-.5.3-1,.5-1.5.3-.7.7-1.2,1.2-1.6.5-.4,1-.7,1.6-.8.6-.2,1.1-.2,1.7-.1.6,0,1.1.2,1.7.5.5.2.9.5,1.2.8ZM130.2,154.2c0,0,0,.2,0,.3,0,.2.2.3.4.5.2.2.4.4.6.5.2.2.5.3.8.4.3.1.5.2.7.2.2,0,.4,0,.5,0,.1,0,.2,0,.3,0s.1-.1.1-.2c0-.1,0-.3-.1-.4-.1-.2-.4-.3-.6-.5-.3-.2-.6-.4-1-.6-.4-.2-.8-.4-1.3-.6-.2,0-.3.1-.4.2Z"/>
        <path class="cls-2" d="M130.4,141.3c.4.3.9.7,1.4,1,.5.4,1,.8,1.5,1.2s1,.8,1.5,1.2c.5.2,1,.3,1.5.5.4.1.9.3,1.3.4.2,0,.2.1.3.2,0,0,0,.2,0,.4,0,.2-.1.4-.2.6,0,.2-.2.4-.3.6-.1.2-.2.3-.4.3s-.3,0-.5,0c-.3,0-.7-.2-1.2-.3-.4,0-.9-.2-1.5-.4-.5.1-1,.3-1.6.4-.6.1-1.1.3-1.7.4-.6.1-1.1.3-1.6.4-.5.1-1,.2-1.5.4-.2,0-.4,0-.4,0,0,0-.1-.2-.1-.4,0-.2,0-.5,0-.7s0-.5.1-.7c0-.2.2-.4.3-.5.1,0,.3-.2.6-.3.5-.1,1.1-.3,1.7-.4.6-.1,1.3-.3,2-.4-.6-.5-1.3-1-2-1.5-.7-.5-1.4-1-2.1-1.4-.2,0-.3-.2-.3-.4s0-.3.2-.5c.1-.2.2-.3.4-.5.2-.2.3-.3.4-.4,0,0,.2-.1.3-.1,0,0,.2,0,.2,0,0,0,.2,0,.3,0,0,0,.2,0,.3.2.3.2.6.4,1.1.7Z"/>
        <path class="cls-2" d="M136.2,137.3c0,.6,0,1.1.2,1.6.3.2.6.4.8.5s.5.3.8.4c.1,0,.2.2.2.3s0,.2,0,.4c0,.1-.1.2-.2.3,0,.1-.1.2-.2.4,0,0-.1.2-.2.2s-.1.1-.2.2c0,0-.2,0-.3,0s-.2,0-.4-.1c-.5-.2-1.2-.5-1.9-.9-.7-.4-1.4-.8-2.2-1.2-.8-.4-1.5-.9-2.2-1.3-.7-.4-1.4-.9-2-1.2-.2-.1-.4-.3-.5-.5-.1-.2-.1-.5,0-.9,0-.3,0-.6.2-.9,0-.3.1-.5.2-.7s.1-.4.2-.6c0-.2.1-.4.2-.5.1-.2.2-.4.4-.4.2,0,.3,0,.6,0,.6,0,1.2.2,1.9.3.7,0,1.5.2,2.3.3.8,0,1.6.2,2.4.2.8,0,1.5.1,2.2.2.1,0,.2,0,.3.1,0,0,0,.2,0,.4,0,.2,0,.4,0,.6,0,.2,0,.4-.2.5,0,.2-.2.3-.3.4,0,0-.3.1-.5.1-.2,0-.5,0-.8,0-.3,0-.6,0-.9,0,0,.6,0,1.2,0,1.8ZM134.2,136.5c0-.4,0-.7,0-1.1-.7,0-1.3,0-2-.1-.6,0-1.3-.1-1.9-.2.6.4,1.2.8,1.8,1.2.7.4,1.4.9,2.1,1.3,0-.4,0-.7,0-1.1Z"/>
        <path class="cls-2" d="M136.3,126.8c.3-.2.6-.3.8-.5.3-.2.5-.3.8-.5.2-.1.4-.3.6-.4.1-.1.3-.2.3-.1,0,0,.2.1.2.3,0,.1,0,.2.1.4,0,.1,0,.3,0,.4,0,.2,0,.4,0,.6,0,.2-.2.4-.5.6-.1,0-.2.2-.4.3-.2.1-.4.3-.6.4-.2.2-.5.3-.7.5-.3.2-.5.3-.8.5.5.2,1,.3,1.4.4.4.1.8.2,1.2.3.1,0,.2,0,.2.1,0,0,0,.1,0,.2,0,.1,0,.2-.1.4,0,.1-.1.3-.2.5-.1.4-.3.6-.4.7-.2.1-.4.2-.7.2-.3,0-.6,0-1.1-.2-.4,0-.9-.2-1.5-.3-.5-.1-1.1-.2-1.7-.4-.6-.1-1.2-.3-1.7-.4-.6-.1-1.1-.3-1.6-.4-.5-.1-.9-.3-1.3-.4-.2,0-.3-.2-.4-.3,0-.1,0-.3,0-.5,0-.2.2-.5.4-.8.2-.3.3-.5.5-.7,0-.1.2-.2.2-.3,0,0,.1-.1.2-.1,0,0,.1,0,.2,0,0,0,.2,0,.3,0,.4.2.8.3,1.4.5.5.2,1.1.3,1.7.5-.3-.4-.7-.8-1.1-1.2-.4-.4-.8-.8-1.1-1.3-.4-.4-.7-.8-1.1-1.1-.3-.4-.6-.6-.9-.9-.2-.2-.2-.3-.2-.4,0-.1,0-.3.3-.4.2-.2.3-.3.5-.4.2,0,.4-.2.6-.3.2,0,.4,0,.5,0,.2,0,.4.1.6.3.3.2.6.5.9.8.3.3.7.7,1,1.1.4.4.7.8,1.1,1.2.3.4.7.8,1,1.2.3-.1.6-.3.9-.4Z"/>
        <path class="cls-2" d="M129.9,120.4c0-.4-.1-.9-.1-1.3,0-.5,0-.9,0-1.4,0-.5,0-1,0-1.5,0-.5.2-.7.6-.8.2,0,.4-.1.5-.2.2,0,.3,0,.5,0,.2,0,.3,0,.4,0,0,0,.1.2.1.5,0,.5,0,1,0,1.5,0,.5,0,1.1,0,1.6.3.2.7.3,1.1.4.4.1.8.3,1.2.5,0-.2,0-.5,0-.7,0-.2,0-.5,0-.8,0-.2,0-.4.1-.5s.2-.2.3-.3c.2,0,.3-.1.5-.2.2,0,.3,0,.5,0,.2,0,.3,0,.4,0,0,0,.1.2.1.4,0,.5,0,1,.1,1.5,0,.5,0,1,.1,1.5.2,0,.5.2.7.2.2,0,.4.2.7.2,0-.4,0-.7,0-1.1,0-.3,0-.7,0-1.1,0-.2,0-.4,0-.5,0-.1.2-.2.3-.3.2,0,.3-.1.5-.2.1,0,.3,0,.4-.1.2,0,.3,0,.3,0,0,0,0,.2.1.4,0,.5.1,1,.2,1.6,0,.5.1,1,.2,1.5,0,.3,0,.6,0,.7,0,.2-.1.3-.2.4,0,.1-.2.2-.3.4-.1.1-.2.2-.4.4-.1.1-.3.2-.4.3-.2,0-.3,0-.6,0l-7.8-1.9c0-.4-.1-.7-.2-1.2Z"/>
        <path class="cls-2" d="M130.4,113.3c-.1-.4-.2-.9-.2-1.3,0-.5,0-.9,0-1.4,0-.5.2-.9.4-1.4.2-.4.5-.8.8-1.2.4-.4.8-.6,1.4-.8.5-.2.9-.3,1.4-.3.5,0,1,0,1.6.2s1,.4,1.6.8c.5.3,1,.8,1.4,1.3.4.5.8,1.1,1.1,1.7s.6,1.4.7,2.2c.1.4,0,.8-.2,1.3-.1.2-.3.4-.4.6-.1.2-.3.3-.5.5,0,0-.2.1-.2.2,0,0-.2.1-.2.2,0,0-.2,0-.3,0-.1,0-.3,0-.5,0l-7.5-1.4c-.1-.3-.3-.7-.4-1.1ZM137.9,111.8c-.3-.5-.7-.9-1.1-1.2-.4-.3-.8-.6-1.2-.8-.4-.2-.8-.3-1.1-.4-.5,0-.9,0-1.2,0-.3.1-.5.4-.7.7-.2.3-.2.8,0,1.3,1,.4,2,.7,3,1s2,.6,3,.9c-.2-.6-.5-1.2-.8-1.7Z"/>
        <path class="cls-2" d="M131.4,103.6c0-.4-.1-.9-.1-1.3,0-.5,0-.9,0-1.4,0-.5,0-1,0-1.5,0-.5.2-.7.6-.8.2,0,.4-.1.5-.2.2,0,.3,0,.5,0,.2,0,.3,0,.4,0,0,0,.1.2.1.5,0,.5,0,1,0,1.5,0,.5,0,1.1,0,1.6.3.2.7.3,1.1.4.4.1.8.3,1.2.5,0-.2,0-.5,0-.7,0-.2,0-.5,0-.8,0-.2,0-.4.1-.5,0-.1.2-.2.3-.3.2,0,.3-.1.5-.2.2,0,.3,0,.5,0,.2,0,.3,0,.4,0,0,0,.1.2.1.4,0,.5,0,1,.1,1.5,0,.5,0,1,.1,1.5.2,0,.5.2.7.2.2,0,.4.2.7.2,0-.4,0-.7,0-1.1,0-.3,0-.7,0-1.1,0-.2,0-.4,0-.5s.2-.2.3-.3c.2,0,.3-.1.5-.2.1,0,.3,0,.4-.1.2,0,.3,0,.3,0,0,0,0,.2.1.4,0,.5.1,1,.2,1.6s.1,1,.2,1.5c0,.3,0,.6,0,.7s-.1.3-.2.4c-.1.1-.2.2-.3.4-.1.1-.2.2-.4.4-.1.1-.3.2-.4.3s-.3,0-.6,0l-7.8-1.9c0-.4-.1-.7-.2-1.2Z"/>
        <path class="cls-2" d="M135.1,90c.4.2.9.5,1.4.7.5.3,1,.6,1.5.9.5.3,1,.6,1.5.9.5.3,1,.6,1.4.8.4.3.8.5,1.1.7.2.1.3.3.3.4s0,.4,0,.6c-.1.3-.2.5-.3.8-.1.2-.2.5-.4.7-.2.3-.4.5-.6.6-.2.1-.5.2-.7.2-1.1.2-2.4.3-3.8.4-1.4,0-2.9.2-4.6.2-.2,0-.4,0-.4,0,0,0-.1-.2,0-.4,0-.2,0-.4.1-.6s.1-.4.2-.6c.2-.5.6-.8,1.1-.8.4,0,.8,0,1.3,0,.5,0,1,0,1.6,0,.6,0,1.1,0,1.7,0,.6,0,1.2,0,1.8,0-1.1-.6-2.3-1.3-3.5-1.9s-2.5-1.2-3.7-1.8c-.1,0-.2-.2-.3-.3,0-.1,0-.2,0-.4,0-.1,0-.3.2-.4,0-.1.2-.3.3-.4.1-.2.2-.3.3-.4.1-.1.2-.2.3-.3.1,0,.2,0,.4,0,.1,0,.3,0,.5.1.3.1.7.3,1.2.6Z"/>
      </g>
    </g>
  </g>
</svg>